<?xml version="1.0" standalone="no"?>
<!DOCTYPE svg PUBLIC "-//W3C//DTD SVG 20010904//EN"
 "http://www.w3.org/TR/2001/REC-SVG-20010904/DTD/svg10.dtd">
<svg version="1.0" xmlns="http://www.w3.org/2000/svg"
 width="512.000000pt" height="512.000000pt" viewBox="0 0 512.000000 512.000000"
 preserveAspectRatio="xMidYMid meet">
<metadata>
Created by potrace 1.14, written by Peter Selinger 2001-2017
</metadata>
<g transform="translate(0.000000,512.000000) scale(0.100000,-0.100000)"
fill="#000000" stroke="none">
<path d="M902 4300 c3 -44 4 -45 38 -48 149 -11 255 -50 290 -108 57 -91 54
-19 58 -1534 2 -930 0 -1425 -7 -1486 -25 -211 -71 -257 -291 -284 -46 -5 -86
-10 -87 -10 -2 0 -3 -23 -3 -51 l0 -51 73 7 c95 10 1328 10 1435 0 l82 -7 0
51 c0 28 -4 51 -9 51 -35 0 -175 24 -218 37 -96 30 -134 89 -152 233 -16 125
-15 1450 1 1450 6 0 37 -7 68 -16 69 -19 138 -70 196 -144 60 -77 855 -1367
871 -1414 19 -54 4 -90 -46 -110 -31 -12 -165 -36 -202 -36 -5 0 -9 -23 -9
-51 l0 -51 108 7 c133 10 1144 9 1258 0 l84 -7 0 50 0 50 -86 42 c-164 79
-151 63 -849 1150 -340 531 -619 972 -619 980 0 21 657 803 765 910 176 176
344 273 597 346 7 2 12 21 12 46 l0 43 -620 0 -620 0 0 -42 0 -41 53 -7 c131
-16 237 -68 284 -138 76 -111 38 -297 -100 -488 -105 -148 -447 -547 -563
-659 -127 -123 -268 -225 -356 -258 -53 -20 -191 -52 -223 -52 -13 0 -15 68
-15 623 0 750 6 815 78 890 32 34 127 64 232 75 l75 7 3 45 3 45 -796 0 -796
0 3 -45z"/>
</g>
</svg>
